<?xml version="1.0" encoding="UTF-8"?>
<svg version="1.1" xmlns="http://www.w3.org/2000/svg" width="718" height="347">
<path d="M0 0 C7.54114068 6.1700242 13.29505095 14.45136357 14.75 24.25 C15.72185373 36.26274939 13.55015864 45.89272849 5.7421875 55.2421875 C-0.62582988 61.66015011 -7.87685318 65.42557557 -17.00952148 65.63061523 C-24.20017218 65.61094762 -30.09620013 65.28508347 -36.25 61.25 C-37.02988281 60.74082031 -37.80976563 60.23164063 -38.61328125 59.70703125 C-47.60234075 53.27786758 -50.79519779 46.56523985 -52.80859375 35.7734375 C-54.06594528 25.73687928 -52.12596645 15.86619628 -46.3359375 7.4765625 C-41.40034275 1.52943243 -36.69038568 -1.70678528 -29.25 -3.75 C-28.60933594 -3.93949219 -27.96867187 -4.12898437 -27.30859375 -4.32421875 C-17.80197091 -6.2904842 -8.44439787 -4.54698347 0 0 Z " fill="#FEAC31" transform="translate(194.25,233.75)"/>
<path d="M0 0 C1.07121094 0.43505859 1.07121094 0.43505859 2.1640625 0.87890625 C11.08376824 4.87105919 15.66119808 13.0266836 19.12109375 21.86328125 C21.78232136 31.36090691 20.52836622 41.3183985 16 50 C10.99185584 58.19986297 4.10663832 63.8540704 -5 67 C-15.85239691 69.06786359 -24.65114834 67.57748268 -33.8125 61.375 C-40.13359457 56.44454624 -45.1678372 50.5093579 -46.7578125 42.4296875 C-48.07475686 29.21776187 -47.49297421 18.54038764 -39 8 C-28.80454231 -3.56092078 -13.83167191 -5.81729162 0 0 Z " fill="#3D95A5" transform="translate(189,42)"/>
<path d="M0 0 C7.28435432 5.59031843 12.65220857 12.98422169 14.6875 22.0625 C15.8164184 33.32448119 14.1319679 42.6210913 7.5 51.875 C2.29680414 58.09209484 -4.22111268 62.73604306 -12.3125 64.0625 C-24.23561046 64.85545172 -32.91032969 63.81250652 -42.234375 56.0859375 C-49.18311472 49.32005936 -52.50659283 41.60070408 -52.64282227 31.91040039 C-52.54398813 19.92980738 -51.3843799 12.21227715 -42.71484375 3.26171875 C-29.89717847 -8.47217645 -14.58805165 -8.53263398 0 0 Z " fill="#FB9A98" transform="translate(194.3125,139.9375)"/>
<path d="M0 0 C4.80185268 2.70261342 7.83091538 6.22598624 10.984375 10.6796875 C11.48710937 11.36546875 11.98984375 12.05125 12.5078125 12.7578125 C17.92643296 20.71347491 18.93988116 29.23212032 17.984375 38.6796875 C15.64857436 48.64665502 10.59354984 56.51325867 2.17578125 62.359375 C-6.1038531 67.3478178 -13.8667915 69.0793782 -23.4296875 67.20703125 C-32.38779518 64.63657767 -39.81728859 58.31886715 -45.015625 50.6796875 C-49.96478041 40.6763946 -51.34909466 30.38012511 -48.015625 19.6796875 C-44.95110091 11.54881311 -40.29152126 4.38025754 -32.3828125 0.33203125 C-29.94734329 -0.65848757 -27.52290263 -1.53205648 -25.015625 -2.3203125 C-16.54617856 -5.14346131 -8.02995435 -3.40024383 0 0 Z " fill="#6D0221" transform="translate(281.015625,42.3203125)"/>
<path d="M0 0 C7.56647534 5.82518383 11.47441302 13.55890068 13.359375 22.81640625 C14.5172356 33.48782249 12.57096724 41.73732093 7.609375 51.12890625 C4.61482945 54.70572455 1.20344332 57.20986496 -2.640625 59.81640625 C-3.465625 60.39390625 -4.290625 60.97140625 -5.140625 61.56640625 C-12.62666788 65.30942769 -20.98963478 66.07157188 -29.015625 63.75390625 C-38.03221751 60.36872941 -45.50922957 55.69190405 -49.640625 46.81640625 C-49.94484375 46.19378906 -50.2490625 45.57117188 -50.5625 44.9296875 C-54.93250645 35.4269848 -54.81736532 25.47893327 -51.640625 15.62890625 C-48.55826309 7.77105407 -44.21901583 1.49617712 -36.703125 -2.62109375 C-24.2063477 -7.98735695 -11.46431015 -7.38771539 0 0 Z " fill="#2A4E71" transform="translate(105.640625,45.18359375)"/>
<path d="M0 0 C2.30078125 1.40625 2.30078125 1.40625 4.4375 2.9375 C5.51064453 3.66453125 5.51064453 3.66453125 6.60546875 4.40625 C13.36352468 9.57939601 16.78876968 16.99130904 19.4375 24.9375 C20.23809748 37.91641684 18.56154761 46.60999608 10.4375 56.9375 C4.75068609 63.2236595 -1.99197347 66.48276741 -10.41015625 67.3203125 C-19.80498965 67.72829886 -27.16899379 66.1986898 -35.25 61.3125 C-43.89628233 52.43253436 -48.54337051 42.37167096 -48.5625 29.9375 C-47.79576757 20.87611671 -43.92120693 12.47283767 -37.5625 5.9375 C-27.05073533 -2.11749208 -12.58054656 -5.94787893 0 0 Z M-32.5625 19.9375 C-35.78006433 25.07148195 -36.46859807 31.00759149 -35.5625 36.9375 C-33.3174265 44.33658633 -29.57743001 49.38432571 -22.8125 53.25 C-18.32976498 55.28989627 -14.41201019 55.98582646 -9.5625 54.9375 C-4.01845181 52.59576024 1.34999388 49.30586083 4.6015625 44.1171875 C7.4280916 36.74707892 7.1786589 28.24725706 4.4375 20.9375 C1.18879189 15.76363154 -3.7726647 11.8674451 -9.5625 9.9375 C-11.67996199 9.74188422 -11.67996199 9.74188422 -13.9375 9.75 C-15.06285156 9.72873047 -15.06285156 9.72873047 -16.2109375 9.70703125 C-23.19206558 10.39122819 -27.99306425 14.96306609 -32.5625 19.9375 Z " fill="#E8E8E8" transform="translate(597.5625,139.0625)"/>
<path d="M0 0 C4.81398176 0.88281484 7.49734618 4.81758599 10.4921875 8.45703125 C12.34752982 11.20370298 14.08418264 13.98077478 15.75390625 16.84375 C17.4241749 19.54097416 17.4241749 19.54097416 19.8046875 21.76953125 C23.20510445 25.1699482 25.96035664 28.90220897 28.8046875 32.76953125 C29.35447266 33.51009766 29.90425781 34.25066406 30.47070312 35.01367188 C31.81490929 36.82542801 33.15527494 38.63989025 34.4921875 40.45703125 C34.5015332 39.38743164 34.51087891 38.31783203 34.52050781 37.21582031 C34.56042262 33.24209155 34.62618471 29.26913581 34.69970703 25.29589844 C34.72790817 23.57724956 34.74912704 21.8584712 34.76318359 20.13964844 C34.78462583 17.66664378 34.83127906 15.1951945 34.8828125 12.72265625 C34.88404114 11.95584534 34.88526978 11.18903442 34.88653564 10.39898682 C34.98332285 6.86274418 35.20972126 4.83086203 37.37011719 1.97167969 C39.4921875 0.45703125 39.4921875 0.45703125 42.0546875 -0.04296875 C44.4921875 0.45703125 44.4921875 0.45703125 46.12026978 2.12437439 C47.83415845 5.03848076 47.87256122 6.90859241 47.88037109 10.27954102 C47.88982758 11.45078018 47.89928406 12.62201935 47.9090271 13.82875061 C47.90295441 15.08924728 47.89688171 16.34974396 47.890625 17.6484375 C47.89349518 18.94522934 47.89636536 20.24202118 47.89932251 21.57810974 C47.90373952 24.31935372 47.89733431 27.06030391 47.88330078 29.80151367 C47.86619177 33.31456356 47.876064 36.8269267 47.89401817 40.33995152 C47.90746414 43.6928353 47.89805143 47.0455342 47.890625 50.3984375 C47.89669769 51.6609584 47.90277039 52.92347931 47.9090271 54.22425842 C47.89957062 55.39234543 47.89011414 56.56043243 47.88037109 57.76391602 C47.87798431 58.79331802 47.87559753 59.82272003 47.87313843 60.88331604 C47.4921875 63.45703125 47.4921875 63.45703125 46.14761353 65.28160095 C43.47845542 67.17682868 41.67117646 66.96566948 38.4921875 66.45703125 C33.19706063 62.04442553 29.30379981 56.21108672 25.20703125 50.70703125 C22.65599057 47.35987993 19.99071992 44.10711324 17.32421875 40.8515625 C15.4921875 38.45703125 15.4921875 38.45703125 14.12890625 36.09375 C11.936674 32.56211094 9.25108851 29.55521458 6.4921875 26.45703125 C6.4828418 27.56216064 6.47349609 28.66729004 6.46386719 29.8059082 C6.42400769 33.90446345 6.35826113 38.00226483 6.28466797 42.1003418 C6.25643471 43.87433186 6.23523187 45.64844826 6.22119141 47.42260742 C6.19979369 49.97250157 6.15316315 52.52087291 6.1015625 55.0703125 C6.09971954 56.26108147 6.09971954 56.26108147 6.09783936 57.47590637 C5.95208111 62.94991751 5.95208111 62.94991751 3.64941406 65.48901367 C0.57116616 66.87032342 -1.32672902 66.42518709 -4.5078125 65.45703125 C-6.77172276 62.06116585 -6.76829733 60.84229856 -6.79833984 56.85571289 C-6.81109955 55.70764664 -6.82385925 54.55958038 -6.83700562 53.37672424 C-6.83923126 52.13607712 -6.84145691 50.89542999 -6.84375 49.6171875 C-6.8504068 48.34354843 -6.8570636 47.06990936 -6.86392212 45.75767517 C-6.87405633 43.06169678 -6.87960311 40.36612157 -6.87841797 37.67016602 C-6.87821469 34.21873919 -6.90552531 30.76813495 -6.93996239 27.31690311 C-6.96757027 24.02119529 -6.96638029 20.7254953 -6.96875 17.4296875 C-6.98312103 16.19106461 -6.99749207 14.95244171 -7.01229858 13.67628479 C-7.00614532 12.52506638 -6.99999207 11.37384796 -6.99365234 10.18774414 C-6.99650238 9.17531143 -6.99935242 8.16287872 -7.00228882 7.11976624 C-6.23608503 2.99378979 -4.13960189 0.75441343 0 0 Z " fill="#ECECEC" transform="translate(271.5078125,138.54296875)"/>
<path d="M0 0 C0.71397949 0.00016113 1.42795898 0.00032227 2.16357422 0.00048828 C4.32600978 -0.0038627 6.48636637 -0.04010731 8.6484375 -0.078125 C10.03254514 -0.08399785 11.41666243 -0.08796411 12.80078125 -0.08984375 C14.05536133 -0.09806152 15.30994141 -0.1062793 16.60253906 -0.11474609 C20.71154766 0.45642792 22.83307259 1.87538198 26.09765625 4.37109375 C26.81953125 4.78359375 27.54140625 5.19609375 28.28515625 5.62109375 C32.82534826 10.00472741 33.34475929 15.80229101 33.59765625 21.80859375 C33.4804656 28.09294219 31.75049682 32.32234624 28.09765625 37.37109375 C28.56816406 37.97566406 29.03867187 38.58023438 29.5234375 39.203125 C33.41287951 44.55955258 33.35142443 50.02688923 33.09765625 56.37109375 C34.41765625 57.03109375 35.73765625 57.69109375 37.09765625 58.37109375 C37.34765625 60.68359375 37.34765625 60.68359375 37.09765625 63.37109375 C34.78510044 66.05365849 33.16684344 66.35977221 29.66015625 66.93359375 C25.90504746 66.34068184 24.34440777 65.56333198 22.0859375 62.48828125 C20.40367952 58.8843926 20.06195676 55.10207178 19.65234375 51.17578125 C19.02094621 47.98322186 18.53441151 46.54046179 16.09765625 44.37109375 C12.7495535 43.66753605 12.7495535 43.66753605 9.03515625 43.62109375 C7.78605469 43.564375 6.53695312 43.50765625 5.25 43.44921875 C3.53288191 43.40666316 1.81530159 43.37109375 0.09765625 43.37109375 C0.11860352 43.92571289 0.13955078 44.48033203 0.16113281 45.05175781 C0.24449173 47.57468398 0.29637493 50.09732024 0.34765625 52.62109375 C0.39792969 53.93013672 0.39792969 53.93013672 0.44921875 55.265625 C0.54776643 61.72049782 0.54776643 61.72049782 -1.69140625 64.95703125 C-4.86060402 66.98397399 -7.22626328 66.77954714 -10.90234375 66.37109375 C-13.6057629 63.6676746 -13.15561828 62.2652533 -13.16113281 58.484375 C-13.16743713 57.24969482 -13.17374146 56.01501465 -13.18023682 54.74291992 C-13.17665713 53.38980975 -13.1725552 52.03670088 -13.16796875 50.68359375 C-13.1693155 49.30118746 -13.17125611 47.91878162 -13.17376709 46.53637695 C-13.17671793 43.63781224 -13.17242211 40.73937072 -13.16308594 37.84082031 C-13.1516913 34.12148738 -13.158251 30.40244307 -13.17023087 26.68312073 C-13.17745063 23.82814348 -13.17516103 20.9732349 -13.16997528 18.11825562 C-13.1686391 16.74669358 -13.17028541 15.37512536 -13.17493439 14.00357056 C-13.18000123 12.08831905 -13.17091206 10.17304574 -13.16113281 8.2578125 C-13.15954163 7.16686279 -13.15795044 6.07591309 -13.15631104 4.9519043 C-12.48770644 -1.8424424 -5.24495306 0.03736502 0 0 Z M0.09765625 11.37109375 C0.09765625 17.64109375 0.09765625 23.91109375 0.09765625 30.37109375 C2.65515625 30.45359375 5.21265625 30.53609375 7.84765625 30.62109375 C8.64655273 30.65750977 9.44544922 30.69392578 10.26855469 30.73144531 C13.74906461 30.78580088 15.71771976 30.64955277 18.5546875 28.5703125 C20.72943316 25.47061173 21.03163988 23.13402669 21.09765625 19.37109375 C19.48954595 15.64704884 17.58323511 13.4135615 14.09765625 11.37109375 C10.59110657 11.00856978 10.59110657 11.00856978 6.84765625 11.18359375 C4.62015625 11.24546875 2.39265625 11.30734375 0.09765625 11.37109375 Z " fill="#EEEEEE" transform="translate(644.90234375,138.62890625)"/>
<path d="M0 0 C4.3923615 -0.14964803 8.78332766 -0.25781326 13.17749023 -0.32958984 C14.66831342 -0.35954481 16.15896368 -0.40032569 17.64916992 -0.45263672 C25.7915468 -0.73105524 32.57961429 -0.94021875 39.32055664 4.31005859 C44.59471877 9.61718903 45.14820708 13.57400771 45.1875 20.9375 C45.20167969 22.14277344 45.21585937 23.34804687 45.23046875 24.58984375 C44.88257448 29.73749959 43.224137 33.04310459 40 37 C40.639375 37.721875 41.27875 38.44375 41.9375 39.1875 C44.87591224 43.43642362 44.48557082 48.17000496 44.53125 53.171875 C44.6859375 54.10515625 44.840625 55.0384375 45 56 C46.92274304 57.46335021 46.92274304 57.46335021 49 58 C49.25 60.3125 49.25 60.3125 49 63 C46.68744419 65.68256474 45.06918719 65.98867846 41.5625 66.5625 C37.80739121 65.96958809 36.24675152 65.19223823 33.98828125 62.1171875 C32.30602327 58.51329885 31.96430051 54.73097803 31.5546875 50.8046875 C30.92753721 47.63360362 30.39492615 46.17720559 28 44 C24.95052496 43.29701744 24.95052496 43.29701744 21.5625 43.25 C20.42941406 43.19328125 19.29632813 43.1365625 18.12890625 43.078125 C15.75320192 43.01880654 13.37644477 43 11 43 C10.9906543 43.62044189 10.98130859 44.24088379 10.97167969 44.88012695 C10.91799005 47.69172677 10.83434354 50.5016598 10.75 53.3125 C10.72873047 54.77719727 10.72873047 54.77719727 10.70703125 56.27148438 C10.67480469 57.20927734 10.64257812 58.14707031 10.609375 59.11328125 C10.58842773 59.97735596 10.56748047 60.84143066 10.54589844 61.73168945 C10 64 10 64 8.15722656 65.81323242 C6 67 6 67 2.875 66.875 C0 66 0 66 -2 63 C-2.25396729 60.42628479 -2.25396729 60.42628479 -2.25878906 57.30688477 C-2.26509338 56.13879776 -2.27139771 54.97071075 -2.27789307 53.76722717 C-2.2738446 52.50470627 -2.26979614 51.24218536 -2.265625 49.94140625 C-2.26753845 48.64557114 -2.2694519 47.34973602 -2.27142334 46.01463318 C-2.27437144 43.27166986 -2.27008786 40.52883684 -2.26074219 37.78588867 C-2.24935895 34.27416109 -2.25590171 30.7627396 -2.26788712 27.25102329 C-2.27686402 23.89779326 -2.2705728 20.54464497 -2.265625 17.19140625 C-2.26967346 15.93090958 -2.27372192 14.6704129 -2.27789307 13.37171936 C-2.26843658 11.61486061 -2.26843658 11.61486061 -2.25878906 9.82250977 C-2.25719788 8.79231216 -2.25560669 7.76211456 -2.25396729 6.70069885 C-1.99764581 3.97496544 -1.39917502 2.3268153 0 0 Z M10 11 C10 17.27 10 23.54 10 30 C12.8875 30.0825 15.775 30.165 18.75 30.25 C19.65331055 30.28641602 20.55662109 30.32283203 21.48730469 30.36035156 C26.32445411 30.43971236 26.32445411 30.43971236 30.51953125 28.1953125 C32.62628757 25.07130972 32.9353016 22.75250743 33 19 C31.89586112 15.92003365 31.08509318 13.78795275 28.40234375 11.83984375 C24.88151794 10.60898595 21.4275814 10.79118259 17.75 10.875 C13.91375 10.936875 13.91375 10.936875 10 11 Z " fill="#EDEDED" transform="translate(459,139)"/>
<path d="M0 0 C1.21641174 -0.01418472 1.21641174 -0.01418472 2.45739746 -0.02865601 C3.76529236 -0.01954697 3.76529236 -0.01954697 5.09960938 -0.01025391 C6.44762634 -0.01455917 6.44762634 -0.01455917 7.82287598 -0.01895142 C9.72258128 -0.02099256 11.62230758 -0.01545919 13.52197266 -0.00292969 C16.43244347 0.01312339 19.34152558 -0.00277653 22.25195312 -0.02197266 C24.09700828 -0.01999023 25.94206257 -0.01614658 27.78710938 -0.01025391 C28.65903931 -0.0163266 29.53096924 -0.02239929 30.42932129 -0.02865601 C31.24026245 -0.01919952 32.05120361 -0.00974304 32.88671875 0 C33.5993689 0.00238678 34.31201904 0.00477356 35.04626465 0.00723267 C37.51661335 0.50329731 38.41543371 1.41853552 39.94335938 3.38818359 C40.41192072 7.13667436 40.09838468 8.15564563 37.94335938 11.38818359 C35.45995034 11.65545374 33.2286387 11.73684694 30.74804688 11.68115234 C30.04060333 11.6769075 29.33315979 11.67266266 28.60427856 11.66828918 C26.34192033 11.65147906 24.08044889 11.61382487 21.81835938 11.57568359 C20.28582015 11.56063967 18.75326697 11.54695075 17.22070312 11.53466797 C13.46097102 11.5041176 9.70315915 11.44540715 5.94335938 11.38818359 C5.94335938 16.66818359 5.94335938 21.94818359 5.94335938 27.38818359 C7.70164062 27.34177734 9.45992188 27.29537109 11.27148438 27.24755859 C13.57875908 27.21004193 15.88605212 27.17364166 18.19335938 27.13818359 C19.35222656 27.10466797 20.51109375 27.07115234 21.70507812 27.03662109 C22.82011719 27.02373047 23.93515625 27.01083984 25.08398438 26.99755859 C26.11040039 26.97661133 27.13681641 26.95566406 28.19433594 26.93408203 C31.65844921 27.50630678 32.8352124 28.63234532 34.94335938 31.38818359 C34.94335938 33.95068359 34.94335938 33.95068359 33.94335938 36.38818359 C30.79565756 39.39611738 28.58972873 39.74956183 24.30273438 39.68115234 C22.69785156 39.66665039 22.69785156 39.66665039 21.06054688 39.65185547 C19.949375 39.62671875 18.83820313 39.60158203 17.69335938 39.57568359 C16.00339844 39.55538086 16.00339844 39.55538086 14.27929688 39.53466797 C11.50044657 39.4993436 8.7218423 39.4455376 5.94335938 39.38818359 C5.94335938 44.33818359 5.94335938 49.28818359 5.94335938 54.38818359 C7.97878906 54.34177734 10.01421875 54.29537109 12.11132812 54.24755859 C14.09381146 54.21973427 16.07629975 54.19205587 18.05883789 54.16845703 C19.43135961 54.14840369 20.80379655 54.12115331 22.17602539 54.08642578 C24.15407982 54.03763808 26.13277056 54.01729483 28.11132812 53.99755859 C29.30008545 53.97661133 30.48884277 53.95566406 31.71362305 53.93408203 C35.58576077 54.47850536 37.22306953 55.62717936 39.94335938 58.38818359 C40.44335938 60.95068359 40.44335938 60.95068359 39.94335938 63.38818359 C38.40608194 65.34701166 37.51491663 66.27341059 35.04626465 66.76913452 C34.3336145 66.7715213 33.62096436 66.77390808 32.88671875 66.77636719 C31.67030701 66.79055191 31.67030701 66.79055191 30.42932129 66.80502319 C29.55739136 66.7989505 28.68546143 66.79287781 27.78710938 66.78662109 C26.43909241 66.79092636 26.43909241 66.79092636 25.06384277 66.7953186 C23.16413747 66.79735975 21.26441117 66.79182638 19.36474609 66.77929688 C16.45427528 66.7632438 13.54519317 66.77914372 10.63476562 66.79833984 C8.78971047 66.79635742 6.94465618 66.79251376 5.09960938 66.78662109 C4.22767944 66.79269379 3.35574951 66.79876648 2.45739746 66.80502319 C1.6464563 66.79556671 0.83551514 66.78611023 0 66.77636719 C-1.06897522 66.77278702 -1.06897522 66.77278702 -2.1595459 66.76913452 C-4.7315503 66.25265664 -5.5655043 65.54533383 -7.05664062 63.38818359 C-7.43759155 60.76977539 -7.43759155 60.76977539 -7.44482422 57.58740234 C-7.4542807 56.39606689 -7.46373718 55.20473145 -7.47348022 53.97729492 C-7.46740753 52.68976318 -7.46133484 51.40223145 -7.45507812 50.07568359 C-7.45709918 48.74194174 -7.46001088 47.40820096 -7.46377563 46.07446289 C-7.46819758 43.28016634 -7.46177252 40.48615761 -7.44775391 37.69189453 C-7.43066157 34.11043894 -7.44050352 30.52965777 -7.4584713 26.94822693 C-7.46931294 24.19440633 -7.46586117 21.44074558 -7.45808792 18.68692017 C-7.45511391 16.72429975 -7.46422354 14.76167311 -7.47348022 12.79907227 C-7.4592955 11.01206909 -7.4592955 11.01206909 -7.44482422 9.18896484 C-7.44243744 8.13878174 -7.44005066 7.08859863 -7.43759155 6.0065918 C-7.05664062 3.38818359 -7.05664062 3.38818359 -5.78591919 1.54989624 C-3.68658685 0.13958504 -2.51702841 0.00842993 0 0 Z " fill="#ECECEC" transform="translate(405.056640625,138.61181640625)"/>
<path d="M0 0 C7.98083727 6.1453461 14.40932907 12.10709265 16.75 22.25 C18.20562018 44.08430276 18.20562018 44.08430276 10.90625 53.01171875 C3.27415082 60.97224842 -3.42736453 65.23496721 -14.625 65.5 C-24.62846826 65.55086705 -32.57045669 61.66942502 -40 55 C-45.80590483 46.5598133 -49.26134034 37.31145727 -48 27 C-45.57932609 15.80438316 -41.48752982 7.80004399 -31.98046875 1.25390625 C-22.84478319 -4.53022603 -9.60324875 -5.72595752 0 0 Z M-35 12 C-40.99723177 20.66266812 -41.85316359 28.56335505 -41 39 C-40.09129237 42.03687265 -38.82102255 44.4191715 -37 47 C-36.38125 47.9075 -35.7625 48.815 -35.125 49.75 C-29.43937667 55.77007176 -23.37347314 58.06335781 -15.25 58.375 C-9.20425386 58.22516738 -4.08448967 57.42191433 1 54 C7.0151713 47.67839544 10.43426237 40.18592828 11.375 31.5625 C10.57953724 24.00560379 8.60449479 16.41944071 3 11 C-9.14673951 2.28432003 -23.64174147 0.75228414 -35 12 Z " fill="#D5D5D5" transform="translate(343,234)"/>
<path d="M0 0 C1.42662964 -0.01418472 1.42662964 -0.01418472 2.88208008 -0.02865601 C3.90712646 -0.02258331 4.93217285 -0.01651062 5.98828125 -0.01025391 C7.04233154 -0.01312408 8.09638184 -0.01599426 9.18237305 -0.01895142 C11.41162656 -0.02099354 13.64089792 -0.01545339 15.87011719 -0.00292969 C19.28751593 0.01312129 22.7037319 -0.00277399 26.12109375 -0.02197266 C28.28515887 -0.01999025 30.44922325 -0.01614663 32.61328125 -0.01025391 C33.63832764 -0.0163266 34.66337402 -0.02239929 35.71948242 -0.02865601 C36.67056885 -0.01919952 37.62165527 -0.00974304 38.6015625 0 C39.43856689 0.00238678 40.27557129 0.00477356 41.13793945 0.00723267 C43.80112752 0.4763118 44.68934129 1.24963449 46.30078125 3.38818359 C46.67578125 5.88818359 46.67578125 5.88818359 46.30078125 8.38818359 C44.73445833 10.42589165 43.87028315 11.29085968 41.30786133 11.72875977 C40.20027466 11.70519409 40.20027466 11.70519409 39.0703125 11.68115234 C38.26787109 11.67148438 37.46542969 11.66181641 36.63867188 11.65185547 C35.80529297 11.62671875 34.97191406 11.60158203 34.11328125 11.57568359 C33.26830078 11.56214844 32.42332031 11.54861328 31.55273438 11.53466797 C29.46847741 11.49934158 27.38454848 11.44553499 25.30078125 11.38818359 C25.30522247 12.02045364 25.3096637 12.65272369 25.3142395 13.30415344 C25.35842242 19.87372583 25.38862669 26.44325614 25.41064453 33.01293945 C25.4207137 35.46608189 25.43436986 37.91921229 25.45166016 40.37231445 C25.47586804 43.89456143 25.48725513 47.41664998 25.49609375 50.93896484 C25.50641632 52.03904373 25.51673889 53.13912262 25.52737427 54.27253723 C25.52760086 55.80378487 25.52760086 55.80378487 25.52783203 57.3659668 C25.53227325 58.26531448 25.53671448 59.16466217 25.54129028 60.09126282 C25.30078125 62.38818359 25.30078125 62.38818359 23.30078125 65.38818359 C21.42578125 65.75146484 21.42578125 65.75146484 19.30078125 65.70068359 C18.59953125 65.69681641 17.89828125 65.69294922 17.17578125 65.68896484 C15.30078125 65.38818359 15.30078125 65.38818359 13.30078125 63.38818359 C13.06027222 61.17355347 13.06027222 61.17355347 13.07373047 58.38769531 C13.07388153 57.34676727 13.07403259 56.30583923 13.07418823 55.23336792 C13.08967209 53.54269699 13.08967209 53.54269699 13.10546875 51.81787109 C13.10829865 50.66650665 13.11112854 49.51514221 13.11404419 48.32888794 C13.12526717 44.64021547 13.15037569 40.95178306 13.17578125 37.26318359 C13.18580831 34.76709334 13.19493463 32.2709993 13.203125 29.77490234 C13.22521341 23.64591376 13.25871178 17.51706582 13.30078125 11.38818359 C12.73568848 11.40389404 12.1705957 11.41960449 11.58837891 11.43579102 C9.03428102 11.49805405 6.48034254 11.53714495 3.92578125 11.57568359 C3.03632813 11.60082031 2.146875 11.62595703 1.23046875 11.65185547 C-0.04570312 11.66635742 -0.04570312 11.66635742 -1.34765625 11.68115234 C-2.52593994 11.70471802 -2.52593994 11.70471802 -3.72802734 11.72875977 C-4.37852051 11.61636963 -5.02901367 11.50397949 -5.69921875 11.38818359 C-7.85424406 8.15564563 -8.1677801 7.13667436 -7.69921875 3.38818359 C-5.41221589 0.3434203 -3.72419358 0.01061981 0 0 Z " fill="#EFEFEF" transform="translate(339.69921875,138.61181640625)"/>
<path d="M0 0 C10.15328562 6.35070375 15.82412479 12.58944317 19.0234375 24.265625 C19.58034717 28.5038261 19.65108257 32.68978769 19.66796875 36.9609375 C19.68751114 38.16753021 19.70705353 39.37412292 19.72718811 40.61727905 C19.77442923 43.8691145 19.80399318 47.12042175 19.82277679 50.37252808 C19.83600527 52.40101746 19.85556203 54.42934822 19.8772583 56.45776367 C19.97939675 66.06047467 20.0156348 75.6624137 20.0234375 85.265625 C20.02579407 86.51500854 20.02815063 87.76439209 20.03057861 89.05163574 C20.04009091 95.91355117 20.01483609 102.77373247 19.93319702 109.63519287 C19.91029043 111.69815369 19.89451382 113.76120782 19.88638306 115.82427979 C19.8128794 129.44611741 19.39662231 141.4557592 10.0234375 152.265625 C1.24215222 159.58336274 -6.27261634 162.92702189 -17.734375 162.609375 C-27.66112904 161.55689987 -36.01581443 156.08275103 -42.2890625 148.453125 C-46.63542051 140.24333766 -48.57178086 133.43719137 -48.51000977 124.13134766 C-48.51862534 123.06651657 -48.52724091 122.00168549 -48.53611755 120.90458679 C-48.55867071 117.41270068 -48.55205726 113.92162419 -48.54296875 110.4296875 C-48.54820941 107.9840776 -48.55448751 105.53846972 -48.56175232 103.09286499 C-48.57213726 97.97717755 -48.56762275 92.86176861 -48.55297852 87.74609375 C-48.53580359 81.21403233 -48.55928149 74.68285164 -48.59446812 68.15088844 C-48.61650688 63.10285697 -48.6149847 58.05503407 -48.6067028 53.00696945 C-48.60588666 50.59979665 -48.61268506 48.19260801 -48.62747383 45.7854805 C-48.76735669 18.89563977 -48.76735669 18.89563977 -38.9765625 7.265625 C-28.51228309 -2.44467795 -13.25047864 -6.99467646 0 0 Z M-39.9765625 13.265625 C-43.27363173 18.71144384 -45.08878334 24.40621564 -45.12373352 30.77272034 C-45.13088882 31.67105087 -45.13804413 32.56938141 -45.14541626 33.49493408 C-45.14810516 34.47315125 -45.15079407 35.45136841 -45.15356445 36.45922852 C-45.16013565 37.49552902 -45.16670685 38.53182953 -45.17347717 39.59953308 C-45.19319593 43.0311999 -45.20487133 46.46282292 -45.21484375 49.89453125 C-45.21891928 51.06865004 -45.2229948 52.24276882 -45.22719383 53.45246696 C-45.24805118 59.67021381 -45.26235287 65.88793863 -45.27172852 72.10571289 C-45.28277597 78.512324 -45.3171581 84.91858617 -45.35690022 91.3250742 C-45.38311246 96.26408003 -45.3914246 101.20300341 -45.39500999 106.14207268 C-45.3998661 108.5026376 -45.41145203 110.86319908 -45.43004799 113.22369576 C-45.45453067 116.53816036 -45.45345707 119.85173145 -45.4465332 123.16625977 C-45.45934326 124.13030731 -45.47215332 125.09435486 -45.48535156 126.08761597 C-45.41838154 134.94198497 -43.40380563 142.97463268 -37.3515625 149.640625 C-30.85362815 155.55556711 -23.51949116 158.8308855 -14.7890625 159.515625 C-5.53396225 158.90873318 2.18177517 155.57738233 9.0234375 149.265625 C15.60457285 140.82895656 16.17268393 133.17173348 16.18457031 122.81323242 C16.18953522 121.77342728 16.19450012 120.73362213 16.19961548 119.66230774 C16.21418742 116.23189628 16.22103048 112.80153104 16.2265625 109.37109375 C16.23231759 106.97984313 16.23807528 104.58859252 16.24383545 102.19734192 C16.25433099 97.18649074 16.26018328 92.17565554 16.26367188 87.16479492 C16.26915662 80.7558665 16.29319062 74.34715051 16.32164383 67.93828869 C16.34030013 62.99936817 16.34547739 58.06049856 16.34700775 53.12154579 C16.35002751 50.7593399 16.35803308 48.39713477 16.37119293 46.03496361 C16.38831732 42.72521315 16.38635747 39.41597841 16.37988281 36.10620117 C16.3890976 35.13810516 16.39831238 34.17000916 16.4078064 33.1725769 C16.34851765 23.45892521 13.87880949 15.32918617 7.0234375 8.265625 C-0.36769259 2.19385875 -7.57925249 -0.28353674 -17.1484375 -0.03515625 C-26.67648379 0.97818569 -33.77431545 6.1676238 -39.9765625 13.265625 Z " fill="#808080" transform="translate(99.9765625,136.734375)"/>
<path d="M0 0 C1.98 0 3.96 0 6 0 C7.0592918 3.17787541 7.11458939 5.42588943 7.09765625 8.76171875 C7.09515869 9.76936279 7.09266113 10.77700684 7.09008789 11.81518555 C7.07643188 13.7319812 7.07643188 13.7319812 7.0625 15.6875 C7.041875 19.750625 7.02125 23.81375 7 28 C22.84 28.495 22.84 28.495 39 29 C38.9604392 20.20431495 38.9604392 20.20431495 38.90991211 11.40869141 C38.90741455 10.31733887 38.90491699 9.22598633 38.90234375 8.1015625 C38.89710693 6.98088379 38.89187012 5.86020508 38.88647461 4.70556641 C39 2 39 2 40 0 C41.66611905 -0.042721 43.33382885 -0.04063832 45 0 C46 1 46 1 46.12025452 3.54994202 C46.11803391 4.68467453 46.11581329 5.81940704 46.11352539 6.98852539 C46.11344986 8.26977798 46.11337433 9.55103058 46.11329651 10.87110901 C46.10818909 12.27995848 46.10297309 13.68880756 46.09765625 15.09765625 C46.09579202 16.53112234 46.09436814 17.96458907 46.09336853 19.39805603 C46.08954372 23.17759957 46.07971377 26.9571049 46.06866455 30.7366333 C46.05844963 34.59069298 46.05387074 38.44475882 46.04882812 42.29882812 C46.03809146 49.86590287 46.02101549 57.43294609 46 65 C43.625 65.625 43.625 65.625 41 66 C39 64 39 64 38.77294922 61.20263672 C38.78342285 60.04006348 38.79389648 58.87749023 38.8046875 57.6796875 C38.80968262 56.54772949 38.81467773 55.41577148 38.81982422 54.24951172 C38.83803223 52.80592285 38.85624023 51.36233398 38.875 49.875 C38.91625 45.29625 38.9575 40.7175 39 36 C28.44 36 17.88 36 7 36 C7.0791274 45.12487435 7.0791274 45.12487435 7.18017578 54.24951172 C7.1851709 55.38146973 7.19016602 56.51342773 7.1953125 57.6796875 C7.20578613 58.84226074 7.21625977 60.00483398 7.22705078 61.20263672 C7 64 7 64 5 66 C3.35 65.67 1.7 65.34 0 65 C0 43.55 0 22.1 0 0 Z " fill="#CACACA" transform="translate(521,233)"/>
<path d="M0 0 C1.65 0 3.3 0 5 0 C5.01981934 1.09876465 5.03963867 2.1975293 5.06005859 3.32958984 C5.13675763 7.4486183 5.22536983 11.56732271 5.31738281 15.68603516 C5.35540924 17.46070914 5.39030545 19.23545332 5.421875 21.01025391 C5.02408273 40.07330356 5.02408273 40.07330356 14 56 C20.56566566 60.20202602 28.19356287 59.89599767 35.703125 58.49609375 C40.32981669 57.2253917 40.32981669 57.2253917 43.375 53.75 C43.58125 52.8425 43.7875 51.935 44 51 C44.49806152 49.99565918 44.99612305 48.99131836 45.50927734 47.95654297 C47.5105416 43.34947684 47.45866087 38.90550592 47.4765625 33.9453125 C47.49214203 33.00315887 47.50772156 32.06100525 47.52377319 31.09030151 C47.5710491 28.10187515 47.59899472 25.11368059 47.625 22.125 C47.66147252 19.11505706 47.70200276 16.10524619 47.74765015 13.09542847 C47.77491874 11.22695679 47.79625171 9.35838756 47.81118774 7.48977661 C47.88928494 1.11071506 47.88928494 1.11071506 49 0 C51.5 -0.125 51.5 -0.125 54 0 C55.53663336 1.53663336 55.14962764 2.96023318 55.17700195 5.1015625 C55.19625481 6.40927612 55.19625481 6.40927612 55.21589661 7.7434082 C55.22328354 8.6943335 55.23067047 9.64525879 55.23828125 10.625 C55.246353 11.60106201 55.25442474 12.57712402 55.26274109 13.58276367 C55.27660694 15.6575339 55.28731784 17.73232719 55.29516602 19.80712891 C55.31227802 22.95911148 55.35612933 26.11001763 55.40039062 29.26171875 C55.41052615 31.27863812 55.41903955 33.29556643 55.42578125 35.3125 C55.44328934 36.24723145 55.46079742 37.18196289 55.47883606 38.14501953 C55.45385505 45.80460097 53.68388269 51.89234636 48.625 57.75 C47.325625 58.86375 47.325625 58.86375 46 60 C45.51273437 60.44214844 45.02546875 60.88429688 44.5234375 61.33984375 C37.80223898 67.28551936 31.45473192 67.53467653 22.8828125 67.30078125 C14.34247517 66.63920582 9.98311046 62.43140625 3.98046875 56.609375 C-0.97996762 50.07373103 -1.43480591 43.5689784 -1.328125 35.6640625 C-1.32625183 34.70349945 -1.32437866 33.7429364 -1.32244873 32.75326538 C-1.31576413 30.73798106 -1.30192192 28.72270891 -1.28125 26.70751953 C-1.24988326 23.61348499 -1.24025281 20.51995962 -1.234375 17.42578125 C-1.22521245 15.46353541 -1.21483908 13.50129477 -1.203125 11.5390625 C-1.19887512 10.61203522 -1.19462524 9.68500793 -1.19024658 8.72988892 C-1.18063904 7.87494843 -1.17103149 7.02000793 -1.16113281 6.13916016 C-1.15430481 5.38607574 -1.14747681 4.63299133 -1.14044189 3.85708618 C-1 2 -1 2 0 0 Z " fill="#CBCBCB" transform="translate(374,232)"/>
<path d="M0 0 C2.3359375 2.140625 2.3359375 2.140625 4 4 C3.34 5.65 2.68 7.3 2 9 C-2.3479182 8.34122452 -5.97417319 6.72535435 -10 5 C-17.73260404 2.81900912 -24.7653163 3.80390129 -32 7 C-34.08458284 8.24008233 -36.01722944 9.59755253 -38 11 C-38.66 11 -39.32 11 -40 11 C-40.268125 11.70125 -40.53625 12.4025 -40.8125 13.125 C-42 16 -42 16 -43.5625 19.0625 C-46.48732477 25.03931583 -47.11041193 31.24548838 -45.2109375 37.66796875 C-43.87346112 41.12396689 -42.60555631 44.19789081 -40.36328125 47.16796875 C-39 49 -39 49 -39 51 C-37.34461042 51.69419563 -35.67363977 52.35103764 -34 53 C-33.36835938 53.26425781 -32.73671875 53.52851563 -32.0859375 53.80078125 C-21.22688749 57.96670771 -11.55793958 56.28163999 -1 52 C-0.34 51.67 0.32 51.34 1 51 C1.99 51.66 2.98 52.32 4 53 C4 55.25 4 55.25 3 58 C0.50805973 59.75446869 -2.16735512 60.89868306 -5 62 C-5.92167969 62.35835938 -6.84335937 62.71671875 -7.79296875 63.0859375 C-17.25273958 65.78214502 -27.51954177 64.87857207 -36.3125 60.6015625 C-45.67002768 55.02512886 -50.45481974 48.38604265 -53.609375 37.9921875 C-55.34104775 29.16065649 -54.1924312 19.95377255 -49.30078125 12.36328125 C-37.09495595 -3.67934571 -18.85200278 -9.45518406 0 0 Z " fill="#CCCCCC" transform="translate(500,235)"/>
<path d="M0 0 C7.24486551 -0.02526739 14.48971974 -0.0428318 21.73461914 -0.05493164 C24.20142033 -0.05997356 26.66821852 -0.06680691 29.13500977 -0.07543945 C32.67204529 -0.08751125 36.20904145 -0.09322956 39.74609375 -0.09765625 C40.85649521 -0.10281754 41.96689667 -0.10797882 43.11094666 -0.11329651 C44.64242088 -0.11340981 44.64242088 -0.11340981 46.20483398 -0.11352539 C47.10862289 -0.115746 48.0124118 -0.11796661 48.94358826 -0.12025452 C51 0 51 0 52 1 C52.125 3.5 52.125 3.5 52 6 C51 7 51 7 48.86694336 7.11352539 C47.95050049 7.10828857 47.03405762 7.10305176 46.08984375 7.09765625 C45.10048828 7.09443359 44.11113281 7.09121094 43.09179688 7.08789062 C42.05087891 7.07951172 41.00996094 7.07113281 39.9375 7.0625 C38.89271484 7.05798828 37.84792969 7.05347656 36.77148438 7.04882812 C34.1809334 7.03699913 31.59049441 7.02051689 29 7 C29.00444122 7.72218719 29.00888245 8.44437439 29.01345825 9.18844604 C29.05349375 15.98666022 29.08396338 22.78485684 29.10362434 29.58315849 C29.11407198 33.07843927 29.12824883 36.57362283 29.15087891 40.06884766 C29.17671953 44.08497056 29.18646466 48.10099097 29.1953125 52.1171875 C29.20563507 53.37554413 29.21595764 54.63390076 29.22659302 55.9303894 C29.22674408 57.09144196 29.22689514 58.25249451 29.22705078 59.44873047 C29.231492 60.47465302 29.23593323 61.50057556 29.24050903 62.55758667 C29 65 29 65 27 67 C25.35 66.67 23.7 66.34 22 66 C22 46.53 22 27.06 22 7 C15.07 7 8.14 7 1 7 C0.34 6.34 -0.32 5.68 -1 5 C-0.625 2.375 -0.625 2.375 0 0 Z " fill="#D8D8D8" transform="translate(238,232)"/>
<path d="M0 0 C2.6970007 2.6970007 2.26409106 4.09823119 2.29052734 7.87084961 C2.3096669 9.71802834 2.3096669 9.71802834 2.32919312 11.6025238 C2.33225034 12.9524622 2.33447833 14.30240268 2.3359375 15.65234375 C2.34236209 17.03235515 2.3490902 18.41236516 2.35610962 19.79237366 C2.36809378 22.6867285 2.37178927 25.58096389 2.37060547 28.4753418 C2.37040217 32.18582389 2.39770896 35.89554095 2.43214989 39.60584164 C2.45437791 42.4565839 2.4584443 45.30714083 2.45738602 48.15796089 C2.459748 49.52593181 2.46860519 50.89390738 2.48405075 52.26179314 C2.50362453 54.17434731 2.49537238 56.08712528 2.48583984 57.99975586 C2.48868988 59.08848495 2.49153992 60.17721405 2.49447632 61.29893494 C2 64 2 64 0.12979126 65.87501526 C-2 67 -2 67 -4.5625 67 C-7.83701187 65.65661051 -8.4496592 64.13912735 -10 61 C-10.3742218 58.39578247 -10.3742218 58.39578247 -10.37231445 55.58642578 C-10.37854324 54.52827667 -10.38477203 53.47012756 -10.39118958 52.37991333 C-10.38197983 51.24649506 -10.37277008 50.11307678 -10.36328125 48.9453125 C-10.36377975 47.77040253 -10.36427826 46.59549255 -10.36479187 45.38497925 C-10.36245348 42.90198067 -10.35273889 40.41897963 -10.33618164 37.93603516 C-10.31263013 34.14594173 -10.31561797 30.35655409 -10.32226562 26.56640625 C-10.31668715 24.15103749 -10.30957621 21.73567169 -10.30078125 19.3203125 C-10.30169266 18.19094269 -10.30260406 17.06157288 -10.30354309 15.89797974 C-10.25322926 10.27936222 -10.18775252 5.22738946 -8 0 C-4.67679974 -1.10773342 -3.30835256 -0.93312508 0 0 Z " fill="#EEEEEE" transform="translate(534,139)"/>
<path d="M0 0 C3.4375 0.375 3.4375 0.375 5.4375 2.375 C5.69819641 4.95581055 5.69819641 4.95581055 5.7121582 8.26171875 C5.72169022 9.49639893 5.73122223 10.7310791 5.74104309 12.00317383 C5.7407817 13.35628284 5.73984481 14.70939187 5.73828125 16.0625 C5.74216659 17.44490692 5.74650092 18.82731264 5.75126648 20.2097168 C5.75873333 23.10827503 5.75843386 26.00671148 5.75317383 28.90527344 C5.74737462 32.6246998 5.76431817 36.34362892 5.7875185 40.06297302 C5.80222974 42.91795784 5.80313122 45.77282213 5.80000877 48.62783813 C5.80052318 49.99940985 5.80578328 51.37098811 5.81582069 52.74252319 C5.82811757 54.65773745 5.81947652 56.57305189 5.80981445 58.48828125 C5.81044388 59.57923096 5.8110733 60.67018066 5.8117218 61.79418945 C5.62648201 63.07169067 5.62648201 63.07169067 5.4375 64.375 C2.17986778 66.54675481 1.21310787 66.83543998 -2.5625 66.375 C-4.69129944 65.21128845 -4.69129944 65.21128845 -6.5625 63.375 C-7.06370544 60.80128479 -7.06370544 60.80128479 -7.06420898 57.68188477 C-7.07358994 56.51379776 -7.08297089 55.34571075 -7.09263611 54.14222717 C-7.08140213 52.87970627 -7.07016815 51.61718536 -7.05859375 50.31640625 C-7.06004898 49.02057114 -7.06150421 47.72473602 -7.06300354 46.38963318 C-7.06438798 43.64651191 -7.05182502 40.9039132 -7.02905273 38.16088867 C-7.00069497 34.64899822 -7.00339669 31.13797784 -7.01614285 27.62602329 C-7.02478213 24.27272689 -7.00964828 20.919688 -6.99609375 17.56640625 C-6.99902939 16.30590958 -7.00196503 15.0454129 -7.00498962 13.74671936 C-6.99230545 12.57548019 -6.97962128 11.40424103 -6.96655273 10.19750977 C-6.96114975 9.16731216 -6.95574677 8.13711456 -6.95018005 7.07569885 C-6.25781245 2.25245255 -4.85997329 0.51157614 0 0 Z " fill="#ECECEC" transform="translate(244.5625,138.625)"/>
<path d="M0 0 C0.33 0 0.66 0 1 0 C1.01030746 0.63369507 1.02061493 1.26739014 1.03123474 1.92028809 C1.13974784 8.53940214 1.2543069 15.15839231 1.37231445 21.77734375 C1.41552022 24.2447652 1.45720491 26.71221378 1.49731445 29.1796875 C1.55536615 32.73445804 1.6189588 36.2890938 1.68359375 39.84375 C1.70030624 40.93989624 1.71701874 42.03604248 1.73423767 43.16540527 C1.81737661 47.50248297 1.90122017 51.77182798 2.51635742 56.06958008 C3.13348781 61.08481588 3.11256202 65.99610027 3.0546875 71.04296875 C3.04293488 72.08842361 3.03118225 73.13387848 3.01907349 74.21101379 C2.99046042 76.41554446 2.95832109 78.62003188 2.92285156 80.82446289 C2.89107968 83.05741002 2.86983395 85.29053298 2.859375 87.52368164 C2.72613095 115.71937123 2.72613095 115.71937123 -7 127 C-15.78128528 134.31773774 -23.29605384 137.66139689 -34.7578125 137.34375 C-44.05151124 136.35839399 -52.33573064 131.42446796 -58.4140625 124.35546875 C-60.23648536 121.76605497 -61.78746006 119.18809913 -62 116 C-61.36741895 114.6501617 -60.70349208 113.31427589 -60 112 C-59.8040625 112.56847656 -59.608125 113.13695312 -59.40625 113.72265625 C-56.03840557 122.41808216 -50.21783741 127.45895145 -41.8046875 131.2890625 C-33.75153384 134.46151697 -25.82383255 133.14628128 -18 130 C-10.58245457 126.3866298 -6.37474322 121.50212702 -3 114 C-2.06465917 110.61034392 -2.06465917 110.61034392 -2 108 C-1.34 108 -0.68 108 0 108 C0 72.36 0 36.72 0 0 Z " fill="#A0A2A1" transform="translate(117,162)"/>
<path d="M0 0 C4.20097082 0.74241295 5.87845392 2.4454205 8.45465088 5.72917175 C13.88588577 13.71015252 14.56633804 22.28416401 14.390625 31.66796875 C14.38496521 32.82879471 14.37930542 33.98962067 14.37347412 35.18562317 C14.35127982 38.85335461 14.30111402 42.52006931 14.25 46.1875 C14.22991316 48.69074099 14.21166625 51.19399746 14.1953125 53.69726562 C14.15147074 59.79851756 14.08473019 65.89918611 14 72 C13.67 72 13.34 72 13 72 C12.67 90.48 12.34 108.96 12 128 C11.67 128 11.34 128 11 128 C10.99761165 127.45169305 10.99522329 126.9033861 10.99276257 126.33846378 C10.9334979 112.96616959 10.85768862 99.59405608 10.76428509 86.2219553 C10.71961034 79.75516068 10.68034757 73.28842864 10.65356445 66.8215332 C10.62750299 60.57740918 10.58707979 54.33352636 10.53681374 48.08955193 C10.52016437 45.71064193 10.50863811 43.33169023 10.50238609 40.95273018 C10.49272431 37.61349491 10.46463888 34.27487406 10.43237305 30.93579102 C10.43380814 29.95826874 10.43524323 28.98074646 10.4367218 27.97360229 C10.31713109 19.18800757 8.22862883 12.26531466 3.3125 4.9375 C2.37857422 3.52791016 2.37857422 3.52791016 1.42578125 2.08984375 C0.95527344 1.40019531 0.48476562 0.71054688 0 0 Z " fill="#333534" transform="translate(105,142)"/>
<path d="M0 0 C4.21200133 4.21200133 4.18584938 10.63798139 4.375 16.3125 C4.16590172 26.95191269 0.37012965 35.35020025 -7 43 C-9.9375 45.0625 -9.9375 45.0625 -12 46 C-12 44.68 -12 43.36 -12 42 C-10.02 41.34 -8.04 40.68 -6 40 C-6 38.02 -6 36.04 -6 34 C-5.01 33.505 -5.01 33.505 -4 33 C-4 32.01 -4 31.02 -4 30 C-3.525625 29.608125 -3.05125 29.21625 -2.5625 28.8125 C0.72261966 25.00176119 0.31678363 17.85734904 0 13 C-0.37125 12.030625 -0.7425 11.06125 -1.125 10.0625 C-2.25109799 6.12115705 -1.36552813 3.79313368 0 0 Z " fill="#D2A140" transform="translate(205,248)"/>
<path d="M0 0 C0.495 1.485 0.495 1.485 1 3 C0.39414063 2.79503906 -0.21171875 2.59007812 -0.8359375 2.37890625 C-13.19331722 -1.59446661 -19.97931701 -1.12049873 -32 4 C-34.32360137 4.76183651 -36.63051045 5.39385151 -39 6 C-29.26601464 -4.95073353 -12.76473161 -8.00137265 0 0 Z " fill="#BF8884" transform="translate(191,138)"/>
<path d="M0 0 C0.56976563 0.22300781 1.13953125 0.44601563 1.7265625 0.67578125 C-0.15637484 2.63717431 -2.04572365 4.49566333 -4.1796875 6.18359375 C-9.51427382 10.46320591 -11.90475581 14.33193575 -14.2734375 20.67578125 C-14.92436192 22.01687022 -15.58653989 23.35275672 -16.2734375 24.67578125 C-17.77818838 21.6662795 -17.69736391 20.06719257 -17.2734375 16.67578125 C-14.62589445 10.54196968 -7.86714091 -1.12194621 0 0 Z " fill="#929390" transform="translate(71.2734375,138.32421875)"/>
<path d="M0 0 C1.07765625 0.00902344 2.1553125 0.01804688 3.265625 0.02734375 C4.08546875 0.03894531 4.9053125 0.05054688 5.75 0.0625 C6.245 1.0525 6.245 1.0525 6.75 2.0625 C5.60724609 2.11857422 5.60724609 2.11857422 4.44140625 2.17578125 C-1.55323602 2.55746259 -6.79969848 3.25782027 -12.41015625 5.44140625 C-14.25 6.0625 -14.25 6.0625 -17.25 6.0625 C-17.518125 6.68125 -17.78625 7.3 -18.0625 7.9375 C-19.25 10.0625 -19.25 10.0625 -22.25 12.0625 C-24.4375 11.6875 -24.4375 11.6875 -26.25 11.0625 C-21.19950731 6.15976108 -17.0159406 3.09228218 -10.25 1.0625 C-9.33734375 0.78212891 -9.33734375 0.78212891 -8.40625 0.49609375 C-5.57420027 -0.07339451 -2.88600294 -0.0313696 0 0 Z " fill="#DBB057" transform="translate(175.25,228.9375)"/>
<path d="M0 0 C2.29296875 1.5234375 2.29296875 1.5234375 4 3 C3.18015625 3.02578125 2.3603125 3.0515625 1.515625 3.078125 C-0.10085937 3.16320313 -0.10085937 3.16320313 -1.75 3.25 C-3.35101563 3.31960937 -3.35101563 3.31960937 -4.984375 3.390625 C-8.56425168 4.11401977 -9.56206017 5.39392639 -12 8 C-15.25 7.75 -15.25 7.75 -18 7 C-18.33 5.68 -18.66 4.36 -19 3 C-12.81886309 0.49171256 -6.69725804 -1.17982784 0 0 Z " fill="#419BAB" transform="translate(180,39)"/>
<path d="M0 0 C0.99 0.66 1.98 1.32 3 2 C10.39333265 3.62260752 17.45670517 2.73029065 24.8359375 1.47265625 C27.62372905 1.05620838 30.18940689 0.91052419 33 1 C27.66782982 5.51183631 22.01299878 6.38800095 15.1875 6.375 C14.135625 6.37693359 14.135625 6.37693359 13.0625 6.37890625 C7.30618959 6.26186482 2.86462537 5.02687801 -2 2 C-1.34 1.34 -0.68 0.68 0 0 Z " fill="#D2A245" transform="translate(160,293)"/>
<path d="M0 0 C0.66 1.32 1.32 2.64 2 4 C1.01 4.33 0.02 4.66 -1 5 C-1.10094304 13.41192037 -1.10102642 21.64399592 0 30 C-0.66 30.33 -1.32 30.66 -2 31 C-4.65175258 20.73756771 -6.7412878 10.94808385 -2 1 C-1.34 0.67 -0.68 0.34 0 0 Z " fill="#E5B54A" transform="translate(146,249)"/>
<path d="M0 0 C-9.74456103 4.76174012 -17.6613382 6.92100259 -28.1875 3.5 C-29.46481967 3.01681077 -30.73856633 2.52326137 -32 2 C-29.20235123 1.20005588 -26.78751853 0.89756357 -23.8828125 0.97265625 C-23.11066406 0.98490234 -22.33851563 0.99714844 -21.54296875 1.00976562 C-19.93870804 1.04475354 -18.33452997 1.08377693 -16.73046875 1.12695312 C-11.11155892 1.2064219 -5.1264772 -1.971722 0 0 Z " fill="#4A0718" transform="translate(283,105)"/>
<path d="M0 0 C0.33 0 0.66 0 1 0 C1.0154612 0.9505426 1.0154612 0.9505426 1.03123474 1.92028809 C1.13974784 8.53940214 1.2543069 15.15839231 1.37231445 21.77734375 C1.41552022 24.2447652 1.45720491 26.71221378 1.49731445 29.1796875 C1.55536615 32.73445804 1.6189588 36.2890938 1.68359375 39.84375 C1.70030624 40.93989624 1.71701874 42.03604248 1.73423767 43.16540527 C1.82141756 47.71328576 1.95758998 52.13452614 2.64477539 56.63476562 C2.82061157 58.30055664 2.82061157 58.30055664 3 60 C2.34 60.66 1.68 61.32 1 62 C0 61 0 61 -0.12025452 58.56394958 C-0.11803391 57.48251175 -0.11581329 56.40107391 -0.11352539 55.28686523 C-0.11344986 54.0656749 -0.11337433 52.84448456 -0.11329651 51.58628845 C-0.10818911 50.24372314 -0.10297311 48.90115825 -0.09765625 47.55859375 C-0.09579199 46.19238842 -0.09436813 44.82618243 -0.09336853 43.4599762 C-0.08954394 39.85798305 -0.07971417 36.25603 -0.06866455 32.65405273 C-0.05844916 28.98096255 -0.05387064 25.30786591 -0.04882812 21.63476562 C-0.03809184 14.42315877 -0.02101614 7.211585 0 0 Z " fill="#ADB2B1" transform="translate(117,162)"/>
<path d="M0 0 C3 1 3 1 4.09765625 2.63671875 C4.41605469 3.31347656 4.73445312 3.99023438 5.0625 4.6875 C5.38347656 5.35136719 5.70445312 6.01523438 6.03515625 6.69921875 C8.31354674 12.13230378 9.23691063 16.44373649 9.125 22.375 C9.10695312 23.62023437 9.08890625 24.86546875 9.0703125 26.1484375 C9.04710937 27.08945313 9.02390625 28.03046875 9 29 C8.67 29 8.34 29 8 29 C7.95101562 28.16855469 7.90203125 27.33710938 7.8515625 26.48046875 C7.77679688 25.39378906 7.70203125 24.30710938 7.625 23.1875 C7.55539063 22.10855469 7.48578125 21.02960938 7.4140625 19.91796875 C7.18804267 16.81373814 7.18804267 16.81373814 5 14 C4.61500109 12.34450469 4.27206865 10.6777567 4 9 C3.34 9 2.68 9 2 9 C1.67 7.02 1.34 5.04 1 3 C0.34 3 -0.32 3 -1 3 C-0.67 2.01 -0.34 1.02 0 0 Z " fill="#D79F9C" transform="translate(200,147)"/>
<path d="M0 0 C2.38112467 0.41053874 3.69302539 0.67922878 5.390625 2.453125 C7.20651521 4.1984952 8.55070342 4.69992947 10.9375 5.4375 C14.46432899 6.65857523 16.57888511 8.07448618 19 11 C13.39771937 11.71301754 10.67443169 11.20815796 6.125 7.75 C3.23749182 5.39572504 1.44855558 3.44603748 0 0 Z " fill="#E2A2A2" transform="translate(148,190)"/>
<path d="M0 0 C0.84827362 0.00444122 1.69654724 0.00888245 2.57052612 0.01345825 C3.53137115 0.01360931 4.49221619 0.01376038 5.48217773 0.01391602 C6.52179657 0.02423859 7.56141541 0.03456116 8.63253784 0.04519653 C9.6951181 0.04802643 10.75769836 0.05085632 11.85247803 0.05377197 C15.25584033 0.06499264 18.6589422 0.09010066 22.06222534 0.11550903 C24.36560697 0.12553639 26.6689927 0.13466266 28.97238159 0.14285278 C34.6274188 0.1649381 40.28230347 0.19843415 45.93722534 0.24050903 C45.93722534 0.57050903 45.93722534 0.90050903 45.93722534 1.24050903 C45.08944267 1.24264656 45.08944267 1.24264656 44.22453308 1.24482727 C38.33538446 1.26453257 32.44727118 1.31882335 26.55856323 1.39309692 C24.36169872 1.41627641 22.16472309 1.43067251 19.96774292 1.43606567 C16.80712643 1.4453553 13.64825758 1.48634781 10.48800659 1.53347778 C9.50761917 1.52954514 8.52723175 1.52561249 7.51713562 1.52156067 C1.56432092 1.59342822 1.56432092 1.59342822 -3.22219849 4.78469849 C-3.82958862 5.59511597 -4.43697876 6.40553345 -5.06277466 7.24050903 C-3.99304729 0.465569 -3.99304729 0.465569 0 0 Z " fill="#9E9E9E" transform="translate(337.0627746582031,138.75949096679688)"/>
<path d="M0 0 C4.74855223 3.60234996 5.94994381 8.36648687 7 14 C7.84736556 24.72895166 7.84736556 24.72895166 5 29 C4.95512451 28.38479492 4.91024902 27.76958984 4.86401367 27.13574219 C4.65224669 24.3392577 4.42009691 21.54482582 4.1875 18.75 C4.08211914 17.29787109 4.08211914 17.29787109 3.97460938 15.81640625 C3.89404297 14.88183594 3.81347656 13.94726562 3.73046875 12.984375 C3.66239014 12.12553711 3.59431152 11.26669922 3.52416992 10.38183594 C2.91452363 7.61159408 1.68296326 6.24319763 0 4 C0 2.68 0 1.36 0 0 Z " fill="#460613" transform="translate(292,55)"/>
<path d="M0 0 C0.66 0.33 1.32 0.66 2 1 C0.93946379 4.41728336 -0.08982997 5.04915225 -3.3125 6.8125 C-7.18853696 8.06071529 -8.2209988 7.98973841 -12 7 C-14.27741506 6.9917931 -16.54123054 7.06157845 -18.81640625 7.16015625 C-21.30117987 6.97790988 -22.85958059 6.23765748 -25 5 C-23.87464844 5.05220703 -23.87464844 5.05220703 -22.7265625 5.10546875 C-14.43987798 5.32463799 -7.03157595 4.6877173 0 0 Z " fill="#7F8180" transform="translate(102,290)"/>
<path d="M0 0 C5.03179885 0.8277418 7.13664968 4.03341764 10 8 C11.7805801 11.48022473 12 12.99150945 12 17 C11.34 17 10.68 17 10 17 C9.61328125 16.27554688 9.2265625 15.55109375 8.828125 14.8046875 C6.0828303 9.70822457 3.32931133 4.73786613 0 0 Z " fill="#8F8F8F" transform="translate(105,142)"/>
<path d="M0 0 C3.15133488 1.83827868 6.11964908 3.75972706 9 6 C8.34 7.32 7.68 8.64 7 10 C5.68 10 4.36 10 3 10 C3 9.34 3 8.68 3 8 C2.01 7.67 1.02 7.34 0 7 C-1.125 2.25 -1.125 2.25 0 0 Z " fill="#DD9994" transform="translate(192,139)"/>
<path d="M0 0 C0.33 0 0.66 0 1 0 C1.02505615 0.90355225 1.0501123 1.80710449 1.07592773 2.73803711 C1.17087317 6.0796428 1.27011621 9.42106252 1.37231445 12.76245117 C1.4157163 14.2106424 1.45738744 15.65888654 1.49731445 17.10717773 C1.55489062 19.18489559 1.61862028 21.26234573 1.68359375 23.33984375 C1.72025146 24.59144287 1.75690918 25.84304199 1.79467773 27.13256836 C1.67803906 29.89630504 1.67803906 29.89630504 3 31 C3.04092937 33.33297433 3.04241723 35.66705225 3 38 C2.34 38 1.68 38 1 38 C-0.23180134 34.30459598 -0.12412112 30.89696622 -0.09765625 27.05078125 C-0.0962413 26.27816452 -0.09482635 25.50554779 -0.09336853 24.70951843 C-0.08777466 22.24380611 -0.07522333 19.77818485 -0.0625 17.3125 C-0.05748421 15.63997527 -0.05292144 13.96744912 -0.04882812 12.29492188 C-0.03780724 8.19657954 -0.02054684 4.09830521 0 0 Z " fill="#D8D8D8" transform="translate(53,240)"/>
<path d="M0 0 C0.61875 0.33 1.2375 0.66 1.875 1 C3.91018344 2.14193235 3.91018344 2.14193235 6 2 C6 3.65 6 5.3 6 7 C4.5459375 7.433125 4.5459375 7.433125 3.0625 7.875 C-0.10664203 8.64214682 -0.10664203 8.64214682 -1 11 C-2.23076923 4.6 -2.23076923 4.6 -1.0625 1.5625 C-0.711875 1.046875 -0.36125 0.53125 0 0 Z " fill="#448C9F" transform="translate(146,55)"/>
<path d="M0 0 C-1.3125 1.5 -1.3125 1.5 -3 3 C-3.99 3 -4.98 3 -6 3 C-6.103125 3.70125 -6.20625 4.4025 -6.3125 5.125 C-7.09359003 8.39137647 -8.42058743 11.0471852 -10 14 C-10.33 14 -10.66 14 -11 14 C-11.5621325 8.49110153 -10.62306299 5.70335213 -7.484375 1.3828125 C-5.0499067 -0.88508692 -2.99973038 -1.49986519 0 0 Z " fill="#C99690" transform="translate(155,146)"/>
<path d="M0 0 C2.125 0.375 2.125 0.375 4 1 C2.93119777 2.34500955 1.84437492 3.67571438 0.75 5 C0.14671875 5.7425 -0.4565625 6.485 -1.078125 7.25 C-3 9 -3 9 -7 9 C-7 9.66 -7 10.32 -7 11 C-7.66 10.67 -8.32 10.34 -9 10 C-7.8758824 8.70756532 -6.75067408 7.41607925 -5.625 6.125 C-4.99851563 5.40570313 -4.37203125 4.68640625 -3.7265625 3.9453125 C-2.52573166 2.5923402 -1.2791655 1.2791655 0 0 Z " fill="#4A8F9D" transform="translate(156,44)"/>
<path d="M0 0 C0.67675781 0.03996094 1.35351562 0.07992187 2.05078125 0.12109375 C5.64217768 0.38318777 7.4428453 0.71189687 10.5 2.75 C2.96462229 3.69351599 -3.16847392 3.82726572 -10.5 1.75 C-6.79060054 -0.72293298 -4.23853572 -0.34715626 0 0 Z " fill="#3B8088" transform="translate(173.5,106.25)"/>
<path d="M0 0 C0.66 0.33 1.32 0.66 2 1 C1.3503125 1.5878125 1.3503125 1.5878125 0.6875 2.1875 C-1.27826898 4.2988815 -2.55003244 6.50605579 -4 9 C-6 12.3125 -6 12.3125 -8 15 C-8.99 15 -9.98 15 -11 15 C-9.2645544 8.82952674 -4.42122925 4.42122925 0 0 Z " fill="#480717" transform="translate(246,44)"/>
<path d="M0 0 C0.33 0 0.66 0 1 0 C1.0544452 2.20805524 1.09299283 4.41650554 1.125 6.625 C1.14820313 7.85476562 1.17140625 9.08453125 1.1953125 10.3515625 C1.00047204 13.99118237 0.5031995 16.68499713 -1 20 C-1.99 20.33 -2.98 20.66 -4 21 C-4.66 20.67 -5.32 20.34 -6 20 C-6 19.34 -6 18.68 -6 18 C-5.34 18 -4.68 18 -4 18 C-4 17.34 -4 16.68 -4 16 C-3.34 16 -2.68 16 -2 16 C-2 14.35 -2 12.7 -2 11 C-1.34 11 -0.68 11 0 11 C0 7.37 0 3.74 0 0 Z " fill="#498B94" transform="translate(208,67)"/>
<path d="M0 0 C5.2193712 -0.6524214 8.02909179 0.87923947 12.265625 3.61328125 C14 5 14 5 16 8 C14.68 8 13.36 8 12 8 C11.34 7.01 10.68 6.02 10 5 C7.59027402 3.98675674 7.59027402 3.98675674 4.875 3.3125 C3.96492187 3.06113281 3.05484375 2.80976563 2.1171875 2.55078125 C1.41851562 2.36902344 0.71984375 2.18726563 0 2 C0 1.34 0 0.68 0 0 Z " fill="#DDAF50" transform="translate(183,231)"/>
<path d="M0 0 C0.33 0.66 0.66 1.32 1 2 C-0.03640625 2.13277344 -1.0728125 2.26554687 -2.140625 2.40234375 C-3.51043265 2.58060639 -4.88022344 2.75899862 -6.25 2.9375 C-6.93191406 3.02451172 -7.61382812 3.11152344 -8.31640625 3.20117188 C-11.60036611 3.6315938 -14.81190294 4.08794131 -18 5 C-18.33 4.34 -18.66 3.68 -19 3 C-12.51656189 0.36903961 -6.97669157 -0.39325819 0 0 Z " fill="#5B9BA8" transform="translate(180,39)"/>
<path d="M0 0 C1.65 0 3.3 0 5 0 C3.04383363 4.62366596 0.03037563 8.79274963 -4.3125 11.375 C-4.869375 11.58125 -5.42625 11.7875 -6 12 C-6 10.68 -6 9.36 -6 8 C-4.02 7.34 -2.04 6.68 0 6 C0 4.02 0 2.04 0 0 Z " fill="#CCA33D" transform="translate(199,282)"/>
<path d="M0 0 C4.5073626 0.53027795 7.4539073 2.19611275 11 5 C11 5.99 11 6.98 11 8 C6.97132081 8 5.24220658 6.29656299 2 4 C1.01 3.34 0.02 2.68 -1 2 C-0.67 1.34 -0.34 0.68 0 0 Z " fill="#7B7C7C" transform="translate(96,136)"/>
<path d="M0 0 C-1.24631444 3.84280285 -2.36048692 6.07319896 -6 8 C-8.1328125 7.5703125 -8.1328125 7.5703125 -10 7 C-8.71372289 5.82739389 -7.42080217 4.6620717 -6.125 3.5 C-5.04605469 2.52546875 -5.04605469 2.52546875 -3.9453125 1.53125 C-2 0 -2 0 0 0 Z " fill="#B7903A" transform="translate(159,233)"/>
<path d="M0 0 C1.984375 1.515625 1.984375 1.515625 4 4 C4.2911521 6.73682971 4.38322418 9.03940039 4.25 11.75 C4.23195312 12.44738281 4.21390625 13.14476563 4.1953125 13.86328125 C4.14838554 15.57611539 4.07664605 17.28823824 4 19 C3.67 19 3.34 19 3 19 C1.93034128 12.67551301 0.86670454 6.35583327 0 0 Z " fill="#57A4B1" transform="translate(204,59)"/>
<path d="M0 0 C4.95 0 9.9 0 15 0 C14.01 0.495 14.01 0.495 13 1 C13 1.66 13 2.32 13 3 C8.71 3 4.42 3 0 3 C0 2.01 0 1.02 0 0 Z " fill="#A8AAA8" transform="translate(79,296)"/>
<path d="M0 0 C2 3 2 3 2 6 C2.66 6 3.32 6 4 6 C4.33 7.98 4.66 9.96 5 12 C0.97449681 10.6581656 0.11714364 8.5772427 -2 5 C-2 4.34 -2 3.68 -2 3 C-1.34 3 -0.68 3 0 3 C0 2.01 0 1.02 0 0 Z " fill="#BE943D" transform="translate(147,277)"/>
<path d="M0 0 C0.66 0 1.32 0 2 0 C3.80679587 4.62369023 4.21839082 8.42528653 4.125 13.375 C4.10695312 14.62023437 4.08890625 15.86546875 4.0703125 17.1484375 C4.04710937 18.08945313 4.02390625 19.03046875 4 20 C3.67 20 3.34 20 3 20 C2.92652344 18.75283203 2.92652344 18.75283203 2.8515625 17.48046875 C2.77679688 16.39378906 2.70203125 15.30710938 2.625 14.1875 C2.55539063 13.10855469 2.48578125 12.02960938 2.4140625 10.91796875 C2.18804267 7.81373814 2.18804267 7.81373814 0 5 C-0.125 2.3125 -0.125 2.3125 0 0 Z " fill="#A9817A" transform="translate(205,156)"/>
<path d="M0 0 C1.670625 0.8971875 1.670625 0.8971875 3.375 1.8125 C4.00148438 2.14894531 4.62796875 2.48539063 5.2734375 2.83203125 C7 4 7 4 9 7 C4.61110675 6.33501617 1.0188515 4.81242323 -3 3 C-2.01 2.01 -1.02 1.02 0 0 Z " fill="#29425B" transform="translate(101,43)"/>
<path d="M0 0 C3.87734333 0.53851991 5.97595561 1.56125452 9 4 C10.31836295 4.69580267 11.64791086 5.37224433 13 6 C12.67 6.66 12.34 7.32 12 8 C7.44328408 6.48109469 3.68276708 4.04597738 0 1 C0 0.67 0 0.34 0 0 Z " fill="#478593" transform="translate(151,99)"/>
<path d="M0 0 C2.01503575 3.02255362 2.89958143 5.56119198 4 9 C4.65411685 10.67163195 5.31653318 12.34015202 6 14 C4.1875 13.5 4.1875 13.5 2 12 C0.18786108 8.68261666 -1.28916393 5.53336471 -0.57421875 1.7421875 C-0.38472656 1.16726563 -0.19523437 0.59234375 0 0 Z " fill="#7B7D7D" transform="translate(56,274)"/>
<path d="M0 0 C0.99 0.33 1.98 0.66 3 1 C0.03 4.3 -2.94 7.6 -6 11 C-6 6.32765318 -3.22690244 3.22690244 0 0 Z " fill="#AFAFAF" transform="translate(306,239)"/>
<path d="M0 0 C0.33 0.99 0.66 1.98 1 3 C-0.328125 4.90234375 -0.328125 4.90234375 -2.25 6.9375 C-4.67043676 9.53296835 -6.91587936 12.12468541 -9 15 C-8.4887988 10.49656089 -6.82478642 8.12474574 -3.9375 4.6875 C-3.20402344 3.80449219 -2.47054688 2.92148438 -1.71484375 2.01171875 C-1.14894531 1.34785156 -0.58304687 0.68398437 0 0 Z " fill="#999999" transform="translate(457,240)"/>
<path d="M0 0 C0.99 0.33 1.98 0.66 3 1 C1.88200014 2.33920838 0.75538103 3.67122556 -0.375 5 C-1.00148438 5.7425 -1.62796875 6.485 -2.2734375 7.25 C-3.12808594 8.11625 -3.12808594 8.11625 -4 9 C-4.66 9 -5.32 9 -6 9 C-4.68775452 5.06326356 -3.08089673 2.77280706 0 0 Z " fill="#C0C1C1" transform="translate(109,284)"/>
<path d="M0 0 C1.22589844 0.01353516 1.22589844 0.01353516 2.4765625 0.02734375 C3.41628906 0.04474609 3.41628906 0.04474609 4.375 0.0625 C0.68765242 2.52073172 -2.32199971 3.07492616 -6.625 4.0625 C-6.625 3.0725 -6.625 2.0825 -6.625 1.0625 C-4.21954362 -0.14022819 -2.67503047 -0.03821472 0 0 Z " fill="#DFAF45" transform="translate(165.625,230.9375)"/>
<path d="M0 0 C0.99 0.66 1.98 1.32 3 2 C4.65549531 2.38499891 6.3222433 2.72793135 8 3 C8 3.66 8 4.32 8 5 C8.66 5.33 9.32 5.66 10 6 C8.55989519 5.74337755 7.1229313 5.46909179 5.6875 5.1875 C4.88699219 5.03667969 4.08648437 4.88585937 3.26171875 4.73046875 C0.76554413 3.92427764 -0.32422106 2.97947998 -2 1 C-1.34 0.67 -0.68 0.34 0 0 Z " fill="#AB8A36" transform="translate(160,293)"/>
<path d="M0 0 C2.64752004 2.57784846 4.94432065 4.91648098 7 8 C2.25 7.25 2.25 7.25 0 5 C-0.125 2.375 -0.125 2.375 0 0 Z " fill="#27415A" transform="translate(59,93)"/>
<path d="M0 0 C1.65 1.65 3.3 3.3 5 5 C4.01 5.33 3.02 5.66 2 6 C0.65909241 6.65129797 -0.67592331 7.31513275 -2 8 C-1.47731534 5.23723823 -0.89130413 2.6739124 0 0 Z " fill="#33707C" transform="translate(196,46)"/>
<path d="M0 0 C0 0.99 0 1.98 0 3 C-1.75 4.60546875 -1.75 4.60546875 -4 6.1875 C-4.7425 6.71730469 -5.485 7.24710937 -6.25 7.79296875 C-6.8275 8.19128906 -7.405 8.58960937 -8 9 C-7.40247743 5.43727166 -7.15000793 5.10938078 -4 2.8125 C-3.01 2.214375 -2.02 1.61625 -1 1 C-0.67 0.67 -0.34 0.34 0 0 Z " fill="#1B3047" transform="translate(112,95)"/>
<path d="M0 0 C-1.1446875 0.8971875 -1.1446875 0.8971875 -2.3125 1.8125 C-4.3483575 3.46959332 -6.1978279 5.10297674 -8 7 C-8 4 -8 4 -7 1 C-2.55696203 -1.27848101 -2.55696203 -1.27848101 0 0 Z " fill="#375777" transform="translate(69,47)"/>
<path d="M0 0 C5.78461538 4.43076923 5.78461538 4.43076923 6.875 7.3125 C6.936875 8.1478125 6.936875 8.1478125 7 9 C2.79373966 7.49776416 1.26099979 4.71449966 -1 1 C-0.67 0.67 -0.34 0.34 0 0 Z " fill="#DCB054" transform="translate(151,285)"/>
<path d="M0 0 C0.99 0.33 1.98 0.66 3 1 C3 2.32 3 3.64 3 5 C3.66 5.33 4.32 5.66 5 6 C4.34 7.32 3.68 8.64 3 10 C2.67 10 2.34 10 2 10 C1.34 6.7 0.68 3.4 0 0 Z " fill="#F8A7A3" transform="translate(144,176)"/>
<path d="M0 0 C1.32 0.33 2.64 0.66 4 1 C1.36 2.98 -1.28 4.96 -4 7 C-4.66 6.67 -5.32 6.34 -6 6 C-5.09972412 4.96468274 -4.17906965 3.94705835 -3.25 2.9375 C-2.48429688 2.08478516 -2.48429688 2.08478516 -1.703125 1.21484375 C-1.14109375 0.81394531 -0.5790625 0.41304687 0 0 Z " fill="#43727C" transform="translate(156,44)"/>
<path d="M0 0 C-3.20336822 2.83374881 -5.78087253 3.5205537 -10 4 C-9.67 3.01 -9.34 2.02 -9 1 C-6.03421164 -0.16513114 -3.15436364 -0.08762121 0 0 Z " fill="#B3913F" transform="translate(193,294)"/>
<path d="M0 0 C2 3 2 3 1.625 5.1875 C1.41875 5.785625 1.2125 6.38375 1 7 C-0.32 6.67 -1.64 6.34 -3 6 C-3 3 -3 3 -1.5 1.3125 C-0.7575 0.6628125 -0.7575 0.6628125 0 0 Z " fill="#DBAB3F" transform="translate(204,275)"/>
<path d="M0 0 C2.64 0.33 5.28 0.66 8 1 C8.33 1.99 8.66 2.98 9 4 C7.35 4 5.7 4 4 4 C4 3.34 4 2.68 4 2 C2.68 2 1.36 2 0 2 C0 1.34 0 0.68 0 0 Z " fill="#F8B73F" transform="translate(186,234)"/>
<path d="M0 0 C0.66 0.66 1.32 1.32 2 2 C0.35 3.98 -1.3 5.96 -3 8 C-3.33 6.68 -3.66 5.36 -4 4 C-3.01 3.67 -2.02 3.34 -1 3 C-0.67 2.01 -0.34 1.02 0 0 Z " fill="#AE837E" transform="translate(200,189)"/>
<path d="M0 0 C0.99 0 1.98 0 3 0 C4.26237731 2.52475462 4.09856404 4.31200466 4.0625 7.125 C4.05347656 8.03507813 4.04445313 8.94515625 4.03515625 9.8828125 C4.02355469 10.58148438 4.01195313 11.28015625 4 12 C3.67 12 3.34 12 3 12 C2.8046875 9.94921875 2.609375 7.8984375 2.4140625 5.84765625 C2.27742188 5.23792969 2.14078125 4.62820312 2 4 C1.34 3.67 0.68 3.34 0 3 C0 2.01 0 1.02 0 0 Z " fill="#8A8A8A" transform="translate(115,159)"/>
<path d="M0 0 C0.66 0.66 1.32 1.32 2 2 C-0.64 2.66 -3.28 3.32 -6 4 C-6.33 3.01 -6.66 2.02 -7 1 C-3.375 -1.125 -3.375 -1.125 0 0 Z " fill="#6E6E6D" transform="translate(78,136)"/>
<path d="M0 0 C1.39195915 4.17587745 -0.17676781 6.13474776 -2 10 C-2.66 9.67 -3.32 9.34 -4 9 C-2.94124926 5.59687262 -1.99097846 2.98646769 0 0 Z " fill="#997C38" transform="translate(148,241)"/>
<path d="M0 0 C3.08089673 2.77280706 4.68775452 5.06326356 6 9 C5.01 8.67 4.02 8.34 3 8 C2.66666667 6.66666667 2.33333333 5.33333333 2 4 C1.01 3.67 0.02 3.34 -1 3 C-0.67 2.01 -0.34 1.02 0 0 Z " fill="#B89C4F" transform="translate(199,239)"/>
<path d="M0 0 C1.875 0.25 1.875 0.25 4 1 C5.3125 2.9375 5.3125 2.9375 6 5 C5.67 5.66 5.34 6.32 5 7 C0 1.125 0 1.125 0 0 Z " fill="#AD8683" transform="translate(148,190)"/>
<path d="M0 0 C-2.39509338 2.89932357 -4.31245243 3.50168276 -8 4 C-7.25 2.0625 -7.25 2.0625 -6 0 C-3.40292416 -1.05506206 -2.5386068 -1.2693034 0 0 Z " fill="#CA8A85" transform="translate(155,146)"/>
<path d="M0 0 C2.31 0 4.62 0 7 0 C4.06171403 2.50298434 1.82097239 3.46930939 -2 4 C-1.34 2.68 -0.68 1.36 0 0 Z " fill="#C7C7C7" transform="translate(241,139)"/>
<path d="M0 0 C4 4.625 4 4.625 4 8 C3.01 8.495 3.01 8.495 2 9 C0.50178941 5.62902617 0 3.79557881 0 0 Z " fill="#4A8A91" transform="translate(201,52)"/>
<path d="M0 0 C0.66 0.33 1.32 0.66 2 1 C0.1875 4 0.1875 4 -2 7 C-2.99 7 -3.98 7 -5 7 C-3.75023244 3.34683329 -3.32901247 2.21934164 0 0 Z " fill="#58081D" transform="translate(240,52)"/>
<path d="M0 0 C3.91402949 1.26941497 5.79072873 2.51167694 8 6 C6.68 6 5.36 6 4 6 C3.34 5.01 2.68 4.02 2 3 C1.34 2.67 0.68 2.34 0 2 C0 1.34 0 0.68 0 0 Z " fill="#A4813C" transform="translate(191,233)"/>
<path d="M0 0 C2 1.75 2 1.75 4 4 C4 5.32 4 6.64 4 8 C3.34 8 2.68 8 2 8 C0.23537317 4.91190305 0 3.76687864 0 0 Z " fill="#C1C1C1" transform="translate(113,151)"/>
<path d="M0 0 C0.99 0.66 1.98 1.32 3 2 C-2.75 6 -2.75 6 -5 6 C-3.86695008 2.60085025 -2.87481525 1.94745549 0 0 Z " fill="#468589" transform="translate(194,100)"/>
<path d="M0 0 C-1.04874998 2.62187494 -1.64931313 3.79371361 -4.125 5.25 C-4.74375 5.4975 -5.3625 5.745 -6 6 C-6 4.68 -6 3.36 -6 2 C-2.25 0 -2.25 0 0 0 Z " fill="#BB9642" transform="translate(199,288)"/>
<path d="M0 0 C0.99 0.33 1.98 0.66 3 1 C2.34 2.98 1.68 4.96 1 7 C0.34 6.67 -0.32 6.34 -1 6 C-1.042721 4.33388095 -1.04063832 2.66617115 -1 1 C-0.67 0.67 -0.34 0.34 0 0 Z " fill="#F8B840" transform="translate(146,273)"/>
<path d="M0 0 C0.66 0.33 1.32 0.66 2 1 C2 3.31 2 5.62 2 8 C1.34 8 0.68 8 0 8 C-0.79953138 4.71303767 -1.09658936 3.28976808 0 0 Z " fill="#AAACAC" transform="translate(54,270)"/>
<path d="M0 0 C0.33 0.66 0.66 1.32 1 2 C1.99 2.33 2.98 2.66 4 3 C4 3.66 4 4.32 4 5 C2.35 5 0.7 5 -1 5 C-1.33 4.01 -1.66 3.02 -2 2 C-1.34 2 -0.68 2 0 2 C0 1.34 0 0.68 0 0 Z " fill="#FBB844" transform="translate(201,245)"/>
<path d="M0 0 C1.32 0.33 2.64 0.66 4 1 C4 2.98 4 4.96 4 7 C1 5 1 5 0.3125 2.375 C0.209375 1.59125 0.10625 0.8075 0 0 Z " fill="#4CA2AC" transform="translate(197,50)"/>
</svg>
